<svg xmlns="http://www.w3.org/2000/svg" xmlns:xlink="http://www.w3.org/1999/xlink" viewBox="0 0 500 400">
  <!-- Definições de gradientes, filtros e padrões -->
  <defs>
    <!-- Gradiente para o fundo do círculo -->
    <linearGradient id="bgGradient" x1="20%" y1="20%" x2="80%" y2="80%">
      <stop offset="0%" stop-color="#f5f9f5" />
      <stop offset="100%" stop-color="#d9f0e6" />
    </linearGradient>
    
    <!-- Gradiente para o corpo da capivara -->
    <radialGradient id="capivaraGradient" cx="50%" cy="50%" r="60%" fx="40%" fy="40%">
      <stop offset="0%" stop-color="#A1887F" />
      <stop offset="70%" stop-color="#8D6E63" />
      <stop offset="100%" stop-color="#795548" />
    </radialGradient>
    
    <!-- Gradiente para o rio -->
    <linearGradient id="riverGradient" x1="0%" y1="0%" x2="100%" y2="0%">
      <stop offset="0%" stop-color="#1565C0" />
      <stop offset="50%" stop-color="#1E88E5" />
      <stop offset="100%" stop-color="#1565C0" />
    </linearGradient>
    
    <!-- Gradiente para a folha -->
    <linearGradient id="leafGradient" x1="30%" y1="30%" x2="70%" y2="70%">
      <stop offset="0%" stop-color="#66BB6A" />
      <stop offset="100%" stop-color="#2E7D32" />
    </linearGradient>
    
    <!-- Sombra para elementos -->
    <filter id="dropShadow" x="-20%" y="-20%" width="140%" height="140%">
      <feGaussianBlur in="SourceAlpha" stdDeviation="3" />
      <feOffset dx="2" dy="3" />
      <feComponentTransfer>
        <feFuncA type="linear" slope="0.3" />
      </feComponentTransfer>
      <feMerge>
        <feMergeNode />
        <feMergeNode in="SourceGraphic" />
      </feMerge>
    </filter>
    
    <!-- Textura sutil para o fundo -->
    <pattern id="texture" width="100" height="100" patternUnits="userSpaceOnUse">
      <rect width="100" height="100" fill="url(#bgGradient)"/>
      <path d="M0 10 L100 10 M10 0 L10 100 M20 0 L20 100 M30 0 L30 100 M40 0 L40 100 M50 0 L50 100 M60 0 L60 100 M70 0 L70 100 M80 0 L80 100 M90 0 L90 100 M0 20 L100 20 M0 30 L100 30 M0 40 L100 40 M0 50 L100 50 M0 60 L100 60 M0 70 L100 70 M0 80 L100 80 M0 90 L100 90" stroke="#ffffff" stroke-width="0.5" opacity="0.1"/>
    </pattern>
    
    <!-- Filtro de brilho para efeitos destacados -->
    <filter id="glow" x="-20%" y="-20%" width="140%" height="140%">
      <feGaussianBlur in="SourceGraphic" stdDeviation="2" />
      <feComponentTransfer>
        <feFuncA type="linear" slope="0.6" />
      </feComponentTransfer>
      <feMerge>
        <feMergeNode />
        <feMergeNode in="SourceGraphic" />
      </feMerge>
    </filter>
  </defs>
  
  <!-- Fundo circular com textura -->
  <circle cx="250" cy="200" r="150" fill="url(#texture)"/>
  
  <!-- Efeito de brilho externo sutil -->
  <circle cx="250" cy="200" r="155" fill="none" stroke="#ffffff" stroke-width="3" opacity="0.5" filter="url(#glow)"/>
  
  <!-- Rio com efeito fluido mais realista -->
  <g>
    <path d="M100 210 C150 180, 200 240, 250 210 S350 180, 400 210" stroke="#90CAF9" stroke-width="26" fill="none" stroke-linecap="round" opacity="0.5"/>
    <path d="M100 205 C150 175, 200 235, 250 205 S350 175, 400 205" stroke="url(#riverGradient)" stroke-width="22" fill="none" stroke-linecap="round"/>
    <path d="M100 235 C150 205, 200 265, 250 235 S350 205, 400 235" stroke="#0D47A1" stroke-width="15" fill="none" stroke-linecap="round" opacity="0.7"/>
    
    <!-- Reflexos na água -->
    <path d="M120 200 L130 195 M170 195 L180 203 M230 203 L240 195 M280 193 L290 198 M330 200 L340 195 M370 195 L380 200" stroke="white" stroke-width="1.5" opacity="0.4"/>
  </g>
  
  <!-- Capivara com estilo mais detalhado -->
  <g transform="translate(210, 150) scale(0.8)">
    <!-- Sombra suave -->
    <ellipse cx="70" cy="118" rx="55" ry="32" fill="#5D4037" opacity="0.2" filter="blur(5px)"/>
    
    <!-- Corpo -->
    <ellipse cx="70" cy="110" rx="50" ry="30" fill="url(#capivaraGradient)"/>
    
    <!-- Destaques no corpo -->
    <ellipse cx="60" cy="102" rx="40" ry="20" fill="white" opacity="0.1"/>
    
    <!-- Cabeça -->
    <circle cx="130" cy="100" r="28" fill="url(#capivaraGradient)"/>
    
    <!-- Olhos -->
    <circle cx="140" cy="94" r="5" fill="#3E2723"/>
    <circle cx="141" cy="92" r="1.5" fill="white"/>
    
    <!-- Nariz -->
    <ellipse cx="150" cy="102" rx="7" ry="5" fill="#4E342E"/>
    <ellipse cx="148" cy="100" rx="2.5" ry="1.5" fill="#8D6E63" opacity="0.7"/>
    
    <!-- Orelhas -->
    <ellipse cx="125" cy="76" rx="9" ry="11" fill="#795548"/>
    <ellipse cx="125" cy="76" rx="6" ry="8" fill="#8D6E63"/>
    
    <!-- Boca -->
    <path d="M135 108 C140 110, 145 110, 150 108" fill="none" stroke="#5D4037" stroke-width="1.5" stroke-linecap="round"/>
    
    <!-- Patas com detalhes -->
    <ellipse cx="40" cy="130" rx="12" ry="9" fill="#5D4037"/>
    <ellipse cx="60" cy="135" rx="12" ry="9" fill="#5D4037"/>
    <ellipse cx="95" cy="135" rx="12" ry="9" fill="#5D4037"/>
    <ellipse cx="115" cy="130" rx="12" ry="9" fill="#5D4037"/>
    
    <!-- Detalhe nas patas -->
    <ellipse cx="40" cy="128" rx="8" ry="5" fill="#6D4C41"/>
    <ellipse cx="60" cy="133" rx="8" ry="5" fill="#6D4C41"/>
    <ellipse cx="95" cy="133" rx="8" ry="5" fill="#6D4C41"/>
    <ellipse cx="115" cy="128" rx="8" ry="5" fill="#6D4C41"/>
  </g>
  
  <!-- Folha como símbolo de proteção ambiental com mais detalhes -->
  <path d="M325 120 C360 80, 400 110, 380 150 C400 170, 360 200, 330 170 C310 190, 280 170, 300 140 C280 110, 320 100, 325 120 Z" fill="url(#leafGradient)" filter="url(#dropShadow)"/>
  
  <!-- Nervuras da folha mais detalhadas -->
  <path d="M325 120 C330 130, 350 140, 380 150" fill="none" stroke="#1B5E20" stroke-width="1" opacity="0.5"/>
  <path d="M325 120 C330 135, 335 150, 330 170" fill="none" stroke="#1B5E20" stroke-width="1" opacity="0.5"/>
  <path d="M325 120 C315 130, 305 135, 300 140" fill="none" stroke="#1B5E20" stroke-width="1" opacity="0.5"/>
  <path d="M380 150 C370 160, 350 165, 330 170" fill="none" stroke="#1B5E20" stroke-width="1" opacity="0.5"/>
  <path d="M300 140 C310 150, 320 160, 330 170" fill="none" stroke="#1B5E20" stroke-width="1" opacity="0.5"/>
  
  <!-- Ícone de localização/denúncia mais detalhado -->
  <g transform="translate(375, 135) scale(0.85)">
    <path d="M0 0 C-15 -25, -45 -25, -45 0 C-45 15, -30 35, -30 35 C-30 35, -15 15, -15 0 Z" fill="#F44336" filter="url(#dropShadow)"/>
    <path d="M0 0 C-13 -22, -42 -22, -42 0 C-42 13, -28 30, -28 30 C-28 30, -13 13, -13 0 Z" fill="#E53935"/>
    <circle cx="-30" cy="0" r="7" fill="white"/>
    <circle cx="-30" cy="0" r="5" fill="#F44336"/>
    <circle cx="-30" cy="0" r="3" fill="#FFCDD2"/>
  </g>
  
  <!-- Contorno refinado com efeito 3D -->
  <circle cx="250" cy="200" r="150" fill="none" stroke="#1B5E20" stroke-width="8"/>
  <circle cx="250" cy="200" r="150" fill="none" stroke="#2E7D32" stroke-width="6"/>
  <circle cx="250" cy="200" r="146" fill="none" stroke="#43A047" stroke-width="2" opacity="0.5"/>
  
  <!-- Faixa para texto com gradiente -->
  <rect x="135" y="280" width="230" height="35" rx="17.5" fill="#FFFFFF" filter="url(#dropShadow)"/>
  <rect x="130" y="315" width="240" height="28" rx="14" fill="#FFFFFF" filter="url(#dropShadow)"/>

  <!-- Texto "RIO CAPIVARA" com estilo aprimorado -->
  <text x="250" y="305" font-family="'Trebuchet MS', Arial, sans-serif" font-weight="bold" font-size="28" text-anchor="middle" fill="#1B5E20">RIO CAPIVARA</text>
  
  <!-- Texto "Denúncias Ambientais" com estilo complementar -->
  <text x="250" y="333" font-family="'Trebuchet MS', Arial, sans-serif" font-size="18" font-weight="bold" text-anchor="middle" fill="#C62828">DENÚNCIAS AMBIENTAIS</text>
</svg>
